<svg width="100" height="51" viewBox="0 0 100 51" fill="none" xmlns="http://www.w3.org/2000/svg">
<path d="M37.6268 10.6812C35.337 10.6782 33.0978 11.3455 31.1925 12.5988C29.2872 13.852 27.8014 15.6349 26.923 17.7217C26.0447 19.8086 25.8133 22.1057 26.2581 24.3224C26.703 26.539 27.8041 28.5757 29.4221 30.1746C31.0401 31.7735 33.1023 32.8629 35.3479 33.3048C37.5934 33.7468 39.9213 33.5215 42.0371 32.6574C44.1528 31.7933 45.9613 30.3294 47.2337 28.4507C48.5062 26.572 49.1853 24.363 49.1853 22.1033C49.1853 19.0766 47.9681 16.1736 45.8009 14.032C43.6336 11.8903 40.6937 10.6852 37.6268 10.6812ZM37.6268 27.9958C36.4446 27.9958 35.2891 27.6498 34.3062 27.0016C33.3234 26.3533 32.5574 25.4319 32.1053 24.354C31.6531 23.2761 31.5351 22.09 31.7661 20.9458C31.9971 19.8017 32.5667 18.7508 33.403 17.9263C34.2392 17.1017 35.3045 16.5404 36.4641 16.3134C37.6236 16.0864 38.8254 16.2039 39.9172 16.6511C41.0091 17.0982 41.942 17.8549 42.5981 18.8254C43.2541 19.7959 43.6037 20.9367 43.6027 22.1033C43.6014 23.6666 42.9712 25.1653 41.8506 26.2703C40.73 27.3752 39.2108 27.9958 37.6268 27.9958Z" fill="#FBB817"/>
<path d="M56.6782 31.8872C58.4342 32.9302 60.4393 33.4943 62.4886 33.5219C64.5379 33.5494 66.5579 33.0395 68.342 32.0441C70.1261 31.0488 71.6105 29.6037 72.6432 27.8567C73.676 26.1097 74.2202 24.1234 74.2202 22.1008C74.2202 20.0782 73.676 18.0918 72.6432 16.3448C71.6105 14.5978 70.1261 13.1528 68.342 12.1574C66.5579 11.1621 64.5379 10.6521 62.4886 10.6797C60.4393 10.7073 58.4342 11.2714 56.6782 12.3143V2.76732C56.6782 2.03338 56.3828 1.3295 55.8569 0.81053C55.3311 0.291556 54.6178 0 53.8741 0C53.5062 -6.04672e-07 53.1418 0.0716146 52.8018 0.210747C52.4619 0.34988 52.1531 0.553799 51.8932 0.810835C51.6332 1.06787 51.4271 1.37298 51.2868 1.7087C51.1464 2.04441 51.0745 2.40415 51.0752 2.76732V22.1033C51.0738 24.0727 51.5892 26.0089 52.5711 27.7235C53.553 29.438 54.9679 30.8725 56.6782 31.8872ZM62.6542 16.2057C63.8297 16.2051 64.9793 16.5467 65.9591 17.1877C66.9389 17.8287 67.7054 18.7406 68.1626 19.8094C68.6199 20.8781 68.7476 22.0562 68.5297 23.1963C68.3119 24.3363 67.7581 25.3876 66.9378 26.2186C66.1176 27.0496 65.0672 27.6234 63.9181 27.8681C62.769 28.1129 61.5723 28.0177 60.4777 27.5946C59.3832 27.1715 58.4394 26.4392 57.7645 25.4893C57.0896 24.5395 56.7135 23.4143 56.6833 22.2545V21.9521C56.7246 20.4156 57.3715 18.9556 58.4865 17.8825C59.6015 16.8094 61.0967 16.2078 62.6542 16.2057Z" fill="#FBB817"/>
<path d="M86.4659 10.7114C84.7331 10.8568 83.0557 11.3858 81.5585 12.2589C80.0613 13.1321 78.7827 14.327 77.8178 15.7549C76.8528 17.1827 76.2264 18.8068 75.9849 20.5065C75.7434 22.2061 75.8932 23.9376 76.423 25.5723C76.9528 27.207 77.8491 28.7029 79.0453 29.9487C80.2414 31.1945 81.7067 32.1583 83.3322 32.7685C84.9577 33.3786 86.7016 33.6194 88.4343 33.4729C90.167 33.3265 91.8441 32.7965 93.3408 31.9225C93.5231 32.5564 93.9218 33.1087 94.4694 33.4858C95.017 33.8629 95.6798 34.0416 96.3456 33.9918C97.0114 33.942 97.6393 33.6667 98.123 33.2124C98.6068 32.7581 98.9166 32.1529 99 31.4991V21.4178C98.9087 19.8957 98.5096 18.4072 97.8262 17.0398C97.1428 15.6724 96.1889 14.4538 95.0207 13.456C93.8526 12.4582 92.4938 11.7013 91.0245 11.2299C89.5553 10.7586 88.0053 10.5822 86.4659 10.7114ZM87.4517 27.9908C86.2695 27.9918 85.1136 27.6467 84.1302 26.9993C83.1468 26.3519 82.3801 25.4312 81.927 24.3536C81.4739 23.2761 81.3548 22.0901 81.5848 20.9457C81.8148 19.8014 82.3836 18.7501 83.2191 17.9248C84.0547 17.0995 85.1195 16.5373 86.2788 16.3093C87.4382 16.0814 88.64 16.1979 89.7323 16.6441C90.8245 17.0903 91.7581 17.8462 92.415 18.8162C93.0719 19.7861 93.4225 20.9266 93.4225 22.0932C93.4198 23.6557 92.79 25.1534 91.671 26.2587C90.552 27.364 89.0349 27.9868 87.4517 27.9908Z" fill="#FBB817"/>
<path d="M22.5082 16.2057C21.5337 14.613 20.1802 13.279 18.5651 12.3194C16.7612 11.2524 14.6975 10.6888 12.5943 10.6888C10.4912 10.6888 8.42747 11.2524 6.6235 12.3194C5.88559 12.7537 5.20016 13.2695 4.58045 13.8568C4.48863 13.9356 4.40164 14.0198 4.31996 14.1088L4.08501 14.3457L3.98286 14.4667C3.90114 14.5524 3.82452 14.6431 3.74791 14.7339L3.64065 14.8498L3.59468 14.9153C3.49763 15.0313 3.40059 15.1522 3.30865 15.2732L3.22693 15.374L3.16564 15.4647C3.09924 15.5504 3.03795 15.6361 2.97666 15.7269C2.91536 15.8176 2.76724 16.0444 2.66509 16.2057C2.3692 16.6896 2.11136 17.1951 1.89384 17.7179C1.65129 18.2829 1.45487 18.8661 1.30646 19.462C1.25028 19.709 1.1992 19.9661 1.15834 20.1979C1.05365 20.8278 1.0007 21.465 1 22.1033V30.748C0.999333 31.1112 1.07124 31.4709 1.2116 31.8067C1.35196 32.1424 1.55802 32.4475 1.818 32.7045C2.07797 32.9616 2.38676 33.1655 2.72668 33.3046C3.0666 33.4437 3.43099 33.5154 3.79898 33.5154C4.54267 33.5154 5.2559 33.2238 5.78177 32.7048C6.30764 32.1858 6.60307 31.482 6.60307 30.748V22.0983C6.60306 21.3223 6.75834 20.554 7.06 19.8374C7.36166 19.1209 7.80375 18.4702 8.3609 17.9227C8.91805 17.3752 9.57928 16.9417 10.3066 16.647C11.034 16.3524 11.8132 16.2024 12.5994 16.2057C14.1834 16.2057 15.7027 16.8264 16.8232 17.9313C17.9438 19.0362 18.574 20.535 18.5753 22.0983V30.748C18.5747 31.1112 18.6466 31.4709 18.7869 31.8067C18.9273 32.1424 19.1334 32.4475 19.3933 32.7045C19.6533 32.9616 19.9621 33.1655 20.302 33.3046C20.6419 33.4437 21.0063 33.5154 21.3743 33.5154C22.1136 33.5087 22.8203 33.2142 23.3406 32.696C23.861 32.1777 24.1529 31.4776 24.1529 30.748V21.4883C24.0559 19.6203 23.4908 17.8052 22.5082 16.2057Z" fill="#FBB817"/>
<path d="M6.73992 47.4412V47.4763C6.70872 48.1706 6.40596 48.8261 5.89503 49.3056C5.34685 49.7705 4.63766 50.0093 3.91516 49.9722C3.51348 49.9856 3.11397 49.9087 2.74706 49.7471C2.38015 49.5856 2.05551 49.3437 1.79787 49.04C1.24516 48.3558 0.963076 47.4976 1.00388 46.6243V45.3663C0.967023 44.4904 1.25258 43.6307 1.80805 42.9456C2.06544 42.6412 2.3899 42.3986 2.75678 42.2362C3.12365 42.0738 3.5233 41.9959 3.92534 42.0084C4.6477 41.9708 5.35747 42.2056 5.9103 42.6649C6.42354 43.1464 6.72497 43.8067 6.7501 44.5043V44.5343H6.13425C6.08944 43.9816 5.85211 43.4611 5.46241 43.0609C5.03919 42.7043 4.49136 42.5245 3.93552 42.5597C3.61602 42.5512 3.29909 42.6182 3.01129 42.7551C2.72349 42.892 2.4732 43.0948 2.28138 43.3465C1.8483 43.9257 1.62759 44.6325 1.65536 45.3513V46.6193C1.62215 47.3464 1.84311 48.0629 2.28138 48.649C2.47345 48.9002 2.72393 49.1023 3.01176 49.2383C3.2996 49.3744 3.61639 49.4404 3.93552 49.4309C4.4908 49.4619 5.03708 49.2826 5.46241 48.9297C5.86309 48.5246 6.10167 47.9907 6.13425 47.4262L6.73992 47.4412Z" fill="#363D4D"/>
<path d="M17.9117 46.6243C17.9604 47.516 17.6619 48.3925 17.077 49.075C16.7959 49.3819 16.4493 49.6237 16.0622 49.7831C15.675 49.9425 15.2568 50.0156 14.8375 49.9972C14.4237 50.0146 14.0111 49.9409 13.6298 49.7814C13.2486 49.6218 12.9083 49.3805 12.6337 49.075C12.0613 48.396 11.7672 47.5309 11.8092 46.6493V45.3663C11.7692 44.485 12.063 43.6206 12.6337 42.9406C12.9056 42.6325 13.2444 42.3888 13.6251 42.2274C14.0057 42.066 14.4184 41.9911 14.8325 42.0084C15.2533 41.9908 15.6728 42.0653 16.061 42.2265C16.4491 42.3876 16.7961 42.6315 17.077 42.9406C17.6531 43.6181 17.9508 44.4835 17.9117 45.3663V46.6243ZM17.2908 45.3563C17.3215 44.634 17.0927 43.9241 16.6444 43.3515C16.4264 43.0891 16.1489 42.8807 15.8342 42.7431C15.5195 42.6056 15.1763 42.5428 14.8325 42.5597C14.5007 42.5433 14.1698 42.6043 13.8664 42.7375C13.5631 42.8707 13.296 43.0725 13.0867 43.3265C12.6514 43.9046 12.4305 44.6121 12.4607 45.3312V46.6042C12.4233 47.3335 12.6447 48.0528 13.0867 48.639C13.2973 48.8928 13.5654 49.0943 13.8695 49.2275C14.1736 49.3607 14.5051 49.4218 14.8375 49.4058C15.1755 49.4228 15.5129 49.3629 15.8236 49.2308C16.1343 49.0987 16.4099 48.8979 16.6291 48.644C17.0828 48.0696 17.317 47.3565 17.2908 46.6293V45.3563Z" fill="#363D4D"/>
<path d="M29.1598 49.8619H28.5185L24.0549 43.2062H24.0193V49.8619H23.3983V42.1186H24.0447L28.488 48.7693H28.5185V42.1186H29.1598V49.8619Z" fill="#363D4D"/>
<path d="M39.4816 47.9624C39.4873 47.7658 39.4471 47.5705 39.3641 47.3915C39.2812 47.2126 39.1577 47.0547 39.0032 46.93C38.5007 46.5819 37.9306 46.3397 37.3287 46.2183C36.6268 46.0768 35.9617 45.7954 35.3743 45.3914C35.1595 45.2307 34.9869 45.0217 34.8709 44.782C34.7549 44.5422 34.6989 44.2786 34.7075 44.0131C34.703 43.7298 34.7682 43.4495 34.8976 43.1964C35.027 42.9433 35.2168 42.7248 35.4506 42.5597C36.0068 42.1713 36.678 41.9756 37.3593 42.0034C38.0753 41.9684 38.7774 42.2072 39.3188 42.6699C39.5555 42.8688 39.7438 43.1176 39.8698 43.3978C39.9958 43.678 40.0562 43.9825 40.0466 44.2888V44.3238H39.4358C39.4402 44.0861 39.3925 43.8502 39.2958 43.6322C39.1992 43.4142 39.056 43.2194 38.876 43.0609C38.4506 42.708 37.9044 42.5287 37.3491 42.5597C36.8235 42.5306 36.3034 42.6772 35.8731 42.9757C35.7121 43.0965 35.5821 43.2529 35.4937 43.4322C35.4053 43.6115 35.3609 43.8088 35.3641 44.0081C35.3645 44.199 35.4108 44.3871 35.4993 44.557C35.5877 44.7269 35.7158 44.8737 35.8731 44.9854C36.3866 45.322 36.9626 45.5553 37.5679 45.672C38.2689 45.8166 38.9291 46.1109 39.502 46.5341C39.7162 46.7062 39.8873 46.9246 40.002 47.1722C40.1167 47.4199 40.172 47.6903 40.1637 47.9624C40.1705 48.2522 40.1032 48.539 39.968 48.7965C39.8328 49.0539 39.6341 49.2738 39.39 49.4359C38.8132 49.8202 38.1263 50.0117 37.4305 49.9822C36.7077 49.9963 35.9977 49.7935 35.3946 49.4008C35.1106 49.2194 34.8816 48.9657 34.732 48.6666C34.5824 48.3675 34.5177 48.0341 34.5447 47.7018V47.6717H35.1045C35.0873 47.9342 35.142 48.1963 35.2629 48.4309C35.3838 48.6654 35.5664 48.8636 35.7916 49.0049C36.274 49.3036 36.8354 49.4553 37.4051 49.4409C37.9443 49.4702 38.4791 49.3298 38.932 49.04C39.1086 48.9207 39.2516 48.7593 39.3477 48.5709C39.4439 48.3825 39.4899 48.1731 39.4816 47.9624Z" fill="#363D4D"/>
<path d="M50.8824 42.1186V47.371C50.9062 47.7306 50.8482 48.0909 50.7126 48.4256C50.577 48.7602 50.3673 49.0609 50.0986 49.3056C49.5256 49.7654 48.8013 50.0025 48.0628 49.9722C47.322 50.0119 46.5939 49.7717 46.0269 49.3006C45.7666 49.0525 45.565 48.751 45.4366 48.4175C45.3082 48.084 45.256 47.7267 45.2838 47.371V42.1186H45.9302V47.366C45.9182 47.6436 45.965 47.9206 46.0675 48.1794C46.17 48.4382 46.3261 48.6732 46.5257 48.8696C46.9472 49.2324 47.493 49.4241 48.0526 49.4058C48.63 49.4301 49.1955 49.2386 49.6355 48.8696C49.8413 48.6771 50.0024 48.4431 50.1078 48.1836C50.2132 47.924 50.2605 47.6452 50.2462 47.366V42.1186H50.8824Z" fill="#363D4D"/>
<path d="M57.2191 49.3206H61.1076V49.8619H56.5727V42.1186H57.2191V49.3206Z" fill="#363D4D"/>
<path d="M69.9432 42.6649H67.2406V49.8619H66.5891V42.6649H63.8865V42.1186H69.9432V42.6649Z" fill="#363D4D"/>
<path d="M75.7708 49.8619H75.1245V42.1186H75.7708V49.8619Z" fill="#363D4D"/>
<path d="M87.5279 49.8619H86.8866L82.4383 43.2062H82.4026V49.8619H81.7563V42.1186H82.4026L86.8714 48.7693H86.9019V42.1186H87.5279V49.8619Z" fill="#363D4D"/>
<path d="M98.9593 48.9447C98.7028 49.2558 98.3699 49.4973 97.9922 49.6464C97.4371 49.8824 96.8355 49.9937 96.2312 49.9722C95.8131 49.9882 95.3963 49.9165 95.0085 49.7618C94.6206 49.6071 94.2706 49.373 93.9816 49.075C93.3864 48.4171 93.0791 47.5543 93.1265 46.6744V45.251C93.0891 44.3942 93.388 43.5561 93.9612 42.9105C94.2332 42.614 94.5678 42.3796 94.9414 42.2238C95.3151 42.068 95.7188 41.9944 96.1243 42.0084C96.8406 41.9667 97.5467 42.1901 98.1042 42.6349C98.5819 43.0514 98.8789 43.6327 98.9338 44.2587V44.2888H98.3333C98.2596 43.8091 98.027 43.3668 97.6716 43.0308C97.246 42.6784 96.6999 42.4991 96.1447 42.5296C95.8207 42.5191 95.4985 42.5819 95.203 42.7131C94.9074 42.8443 94.6463 43.0404 94.4397 43.2864C93.9927 43.8325 93.7629 44.5202 93.7933 45.221V46.6694C93.7584 47.3989 94.0037 48.1146 94.4804 48.6741C94.7003 48.9281 94.9756 49.1299 95.2859 49.2645C95.5961 49.399 95.9332 49.4627 96.2719 49.4509C96.7263 49.4635 97.179 49.3904 97.6054 49.2354C97.889 49.144 98.1445 48.9837 98.3485 48.7693V46.7646H96.2618V46.1882H99L98.9593 48.9447Z" fill="#363D4D"/>
<path d="M6.73992 47.4412V47.4763C6.70872 48.1706 6.40596 48.8261 5.89503 49.3056C5.34685 49.7705 4.63766 50.0093 3.91516 49.9722C3.51348 49.9856 3.11397 49.9087 2.74706 49.7471C2.38015 49.5856 2.05551 49.3437 1.79787 49.04C1.24516 48.3558 0.963076 47.4976 1.00388 46.6243V45.3663C0.967023 44.4904 1.25258 43.6307 1.80805 42.9456C2.06544 42.6412 2.3899 42.3986 2.75678 42.2362C3.12365 42.0738 3.5233 41.9959 3.92534 42.0084C4.6477 41.9708 5.35747 42.2056 5.9103 42.6649C6.42354 43.1464 6.72497 43.8067 6.7501 44.5043V44.5343H6.13425C6.08944 43.9816 5.85211 43.4611 5.46241 43.0609C5.03919 42.7043 4.49136 42.5245 3.93552 42.5597C3.61602 42.5512 3.29909 42.6182 3.01129 42.7551C2.72349 42.892 2.4732 43.0948 2.28138 43.3465C1.8483 43.9257 1.62759 44.6325 1.65536 45.3513V46.6193C1.62215 47.3464 1.84311 48.0629 2.28138 48.649C2.47345 48.9002 2.72393 49.1023 3.01176 49.2383C3.2996 49.3744 3.61639 49.4404 3.93552 49.4309C4.4908 49.4619 5.03708 49.2826 5.46241 48.9297C5.86309 48.5246 6.10167 47.9907 6.13425 47.4262L6.73992 47.4412Z" stroke="#363D4D"/>
<path d="M17.9117 46.6243C17.9604 47.516 17.6619 48.3925 17.077 49.075C16.7959 49.3819 16.4493 49.6237 16.0622 49.7831C15.675 49.9425 15.2568 50.0156 14.8375 49.9972C14.4237 50.0146 14.0111 49.9409 13.6298 49.7814C13.2486 49.6218 12.9083 49.3805 12.6337 49.075C12.0613 48.396 11.7672 47.5309 11.8092 46.6493V45.3663C11.7692 44.485 12.063 43.6206 12.6337 42.9406C12.9056 42.6325 13.2444 42.3888 13.6251 42.2274C14.0057 42.066 14.4184 41.9911 14.8325 42.0084C15.2533 41.9908 15.6728 42.0653 16.061 42.2265C16.4491 42.3876 16.7961 42.6315 17.077 42.9406C17.6531 43.6181 17.9508 44.4835 17.9117 45.3663V46.6243ZM17.2908 45.3563C17.3215 44.634 17.0927 43.9241 16.6444 43.3515C16.4264 43.0891 16.1489 42.8807 15.8342 42.7431C15.5195 42.6056 15.1763 42.5428 14.8325 42.5597C14.5007 42.5433 14.1698 42.6043 13.8664 42.7375C13.5631 42.8707 13.296 43.0725 13.0867 43.3265C12.6514 43.9046 12.4305 44.6121 12.4607 45.3312V46.6042C12.4233 47.3335 12.6447 48.0528 13.0867 48.639C13.2973 48.8928 13.5654 49.0943 13.8695 49.2275C14.1736 49.3607 14.5051 49.4218 14.8375 49.4058C15.1755 49.4228 15.5129 49.3629 15.8236 49.2308C16.1343 49.0987 16.4099 48.8979 16.6291 48.644C17.0828 48.0696 17.317 47.3565 17.2908 46.6293V45.3563Z" stroke="#363D4D"/>
<path d="M29.1598 49.8619H28.5185L24.0549 43.2062H24.0193V49.8619H23.3983V42.1186H24.0447L28.488 48.7693H28.5185V42.1186H29.1598V49.8619Z" stroke="#363D4D"/>
<path d="M39.4816 47.9624C39.4873 47.7658 39.4471 47.5705 39.3641 47.3915C39.2812 47.2126 39.1577 47.0547 39.0032 46.93C38.5007 46.5819 37.9306 46.3397 37.3287 46.2183C36.6268 46.0768 35.9617 45.7954 35.3743 45.3914C35.1595 45.2307 34.9869 45.0217 34.8709 44.782C34.7549 44.5422 34.6989 44.2786 34.7075 44.0131C34.703 43.7298 34.7682 43.4495 34.8976 43.1964C35.027 42.9433 35.2168 42.7248 35.4506 42.5597C36.0068 42.1713 36.678 41.9756 37.3593 42.0034C38.0753 41.9684 38.7774 42.2072 39.3188 42.6699C39.5555 42.8688 39.7438 43.1176 39.8698 43.3978C39.9958 43.678 40.0562 43.9825 40.0466 44.2888V44.3238H39.4358C39.4402 44.0861 39.3925 43.8502 39.2958 43.6322C39.1992 43.4142 39.056 43.2194 38.876 43.0609C38.4506 42.708 37.9044 42.5287 37.3491 42.5597C36.8235 42.5306 36.3034 42.6772 35.8731 42.9757C35.7121 43.0965 35.5821 43.2529 35.4937 43.4322C35.4053 43.6115 35.3609 43.8088 35.3641 44.0081C35.3645 44.199 35.4108 44.3871 35.4993 44.557C35.5877 44.7269 35.7158 44.8737 35.8731 44.9854C36.3866 45.322 36.9626 45.5553 37.5679 45.672C38.2689 45.8166 38.9291 46.1109 39.502 46.5341C39.7162 46.7062 39.8873 46.9246 40.002 47.1722C40.1167 47.4199 40.172 47.6903 40.1637 47.9624C40.1705 48.2522 40.1032 48.539 39.968 48.7965C39.8328 49.0539 39.6341 49.2738 39.39 49.4359C38.8132 49.8202 38.1263 50.0117 37.4305 49.9822C36.7077 49.9963 35.9977 49.7935 35.3946 49.4008C35.1106 49.2194 34.8816 48.9657 34.732 48.6666C34.5824 48.3675 34.5177 48.0341 34.5447 47.7018V47.6717H35.1045C35.0873 47.9342 35.142 48.1963 35.2629 48.4309C35.3838 48.6654 35.5664 48.8636 35.7916 49.0049C36.274 49.3036 36.8354 49.4553 37.4051 49.4409C37.9443 49.4702 38.4791 49.3298 38.932 49.04C39.1086 48.9207 39.2516 48.7593 39.3477 48.5709C39.4439 48.3825 39.4899 48.1731 39.4816 47.9624Z" stroke="#363D4D"/>
<path d="M50.8824 42.1186V47.371C50.9062 47.7306 50.8482 48.0909 50.7126 48.4256C50.577 48.7602 50.3673 49.0609 50.0986 49.3056C49.5256 49.7654 48.8013 50.0025 48.0628 49.9722C47.322 50.0119 46.5939 49.7717 46.0269 49.3006C45.7666 49.0525 45.565 48.751 45.4366 48.4175C45.3082 48.084 45.256 47.7267 45.2838 47.371V42.1186H45.9302V47.366C45.9182 47.6436 45.965 47.9206 46.0675 48.1794C46.17 48.4382 46.3261 48.6732 46.5257 48.8696C46.9472 49.2324 47.493 49.4241 48.0526 49.4058C48.63 49.4301 49.1955 49.2386 49.6355 48.8696C49.8413 48.6771 50.0024 48.4431 50.1078 48.1836C50.2132 47.924 50.2605 47.6452 50.2462 47.366V42.1186H50.8824Z" stroke="#363D4D"/>
<path d="M57.2191 49.3206H61.1076V49.8619H56.5727V42.1186H57.2191V49.3206Z" stroke="#363D4D"/>
<path d="M69.9432 42.6649H67.2406V49.8619H66.5891V42.6649H63.8865V42.1186H69.9432V42.6649Z" stroke="#363D4D"/>
<path d="M75.7708 49.8619H75.1245V42.1186H75.7708V49.8619Z" stroke="#363D4D"/>
<path d="M87.5279 49.8619H86.8866L82.4383 43.2062H82.4026V49.8619H81.7563V42.1186H82.4026L86.8714 48.7693H86.9019V42.1186H87.5279V49.8619Z" stroke="#363D4D"/>
<path d="M98.9593 48.9447C98.7028 49.2558 98.3699 49.4973 97.9922 49.6464C97.4371 49.8824 96.8355 49.9937 96.2312 49.9722C95.8131 49.9882 95.3963 49.9165 95.0085 49.7618C94.6206 49.6071 94.2706 49.373 93.9816 49.075C93.3864 48.4171 93.0791 47.5543 93.1265 46.6744V45.251C93.0891 44.3942 93.388 43.5561 93.9612 42.9105C94.2332 42.614 94.5678 42.3796 94.9414 42.2238C95.3151 42.068 95.7188 41.9944 96.1243 42.0084C96.8406 41.9667 97.5467 42.1901 98.1042 42.6349C98.5819 43.0514 98.8789 43.6327 98.9338 44.2587V44.2888H98.3333C98.2596 43.8091 98.027 43.3668 97.6716 43.0308C97.246 42.6784 96.6999 42.4991 96.1447 42.5296C95.8207 42.5191 95.4985 42.5819 95.203 42.7131C94.9074 42.8443 94.6463 43.0404 94.4397 43.2864C93.9927 43.8325 93.7629 44.5202 93.7933 45.221V46.6694C93.7584 47.3989 94.0037 48.1146 94.4804 48.6741C94.7003 48.9281 94.9756 49.1299 95.2859 49.2645C95.5961 49.399 95.9332 49.4627 96.2719 49.4509C96.7263 49.4635 97.179 49.3904 97.6054 49.2354C97.889 49.144 98.1445 48.9837 98.3485 48.7693V46.7646H96.2618V46.1882H99L98.9593 48.9447Z" stroke="#363D4D"/>
</svg>
