<svg width="175" height="49" viewBox="0 0 175 49" fill="none" xmlns="http://www.w3.org/2000/svg">
<path d="M34.9356 4.63466L32.589 9.79914C28.2414 6.90693 23.1349 5.73671 19.2704 5.73671C13.0599 5.73671 8.98802 8.07814 8.98802 12.1406C8.98802 24.5348 36.1777 18.0623 36.1084 35.5514C36.1084 43.6076 29.0003 48.7721 18.6491 48.7721C11.6104 48.7721 4.70971 45.7425 0.155151 41.4045L2.63936 36.4465C7.12511 40.7845 13.2668 43.2633 18.7184 43.2633C25.6884 43.2633 30.0355 40.4402 30.0355 35.827C30.1048 23.1571 2.91511 29.9053 2.91511 12.6222C2.91511 5.04812 9.60882 0.159271 19.6155 0.159271C25.2052 0.159271 30.9331 1.94943 34.9356 4.63466Z" fill="#075289"/>
<path d="M93.4552 24.4657C93.4552 38.0306 82.2763 48.8412 68.1983 48.8412C54.0514 48.8412 42.8719 38.0306 42.8719 24.4657C42.8719 10.832 54.0514 0.227936 68.1978 0.227936C82.2758 0.227936 93.4552 10.9007 93.4552 24.4657ZM48.4617 24.4657C48.4617 35.0698 57.4327 43.5389 68.1978 43.5389C78.9633 43.5389 87.7962 35.0693 87.7962 24.4657C87.7962 13.8616 78.9633 5.46108 68.1978 5.46108C57.4327 5.46108 48.4617 13.8616 48.4617 24.4657Z" fill="#075289"/>
<path d="M130.236 43.3324V48.5656H103.53V0.365753H109.051V43.3324H130.236V43.3324Z" fill="#075289"/>
<path d="M156.322 48.5656H150.871V32.2467L132.169 0.365753H137.897L153.561 25.4986L169.02 0.365753H174.678L156.322 32.0397V48.5656Z" fill="#075289"/>
</svg>
